<?xml version="1.0" encoding="utf-8"?>
<!-- Generator: Adobe Illustrator 23.0.1, SVG Export Plug-In . SVG Version: 6.00 Build 0)  -->
<svg version="1.1" xmlns="http://www.w3.org/2000/svg" xmlns:xlink="http://www.w3.org/1999/xlink" x="0px" y="0px" width="526.3px"
	 height="139.2px" viewBox="0 0 526.3 139.2" style="enable-background:new 0 0 526.3 139.2;" xml:space="preserve">
<style type="text/css">
	.st0{fill:#F1F2F2;}
	.st1{fill:#2BB673;}
	.st2{fill:none;}
	.st3{fill:#00AEEF;}
	.st4{fill:#414042;}
	.st5{fill:#BE1E2D;}
	.st6{fill:#EF4136;}
	.st7{fill:#F15A29;}
	.st8{fill:#F7941D;}
	.st9{fill:url(#SVGID_1_);stroke:#000000;stroke-miterlimit:10;}
	.st10{fill:#2B3990;}
	.st11{fill:#FFFFFF;}
	.st12{fill:none;stroke:#000000;stroke-miterlimit:10;}
	.st13{fill:#2E3192;}
	.st14{fill:#ED1C24;}
	.st15{fill:url(#SVGID_2_);}
	.st16{fill:url(#SVGID_3_);}
	.st17{fill:url(#SVGID_4_);}
	.st18{fill:url(#SVGID_5_);}
	.st19{fill:url(#SVGID_6_);}
	.st20{fill:url(#SVGID_7_);}
	.st21{fill:url(#SVGID_8_);}
	.st22{fill:#1A1A1A;}
	.st23{fill:url(#SVGID_9_);}
	.st24{fill:url(#SVGID_10_);}
	.st25{fill:url(#SVGID_11_);}
	.st26{fill:url(#SVGID_12_);}
	.st27{fill:url(#SVGID_13_);}
	.st28{fill:url(#SVGID_14_);}
	.st29{fill:url(#SVGID_15_);}
	.st30{fill:url(#SVGID_16_);}
	.st31{fill:#73C162;}
	.st32{fill:url(#SVGID_17_);}
	.st33{fill:url(#SVGID_18_);}
	.st34{fill:url(#SVGID_19_);}
	.st35{fill:url(#SVGID_20_);}
	.st36{fill:url(#SVGID_21_);}
	.st37{fill:url(#SVGID_22_);}
	.st38{fill:url(#SVGID_23_);}
	.st39{fill:url(#SVGID_24_);}
	.st40{fill:#03A0A7;}
	.st41{fill:#A02621;}
	.st42{fill:#FAA840;}
	.st43{fill:none;stroke:#00A651;stroke-miterlimit:10;}
	.st44{fill:url(#SVGID_25_);}
	.st45{fill:url(#SVGID_26_);}
	.st46{fill:url(#SVGID_27_);}
	.st47{fill:url(#SVGID_28_);}
	.st48{fill:url(#SVGID_29_);}
	.st49{fill:url(#SVGID_30_);}
	.st50{fill:url(#SVGID_31_);}
</style>
<g id="Layer_2">
</g>
<g id="Layer_3">
</g>
<g id="Layer_1">
</g>
<g id="Layer_4">
	<g>
		<path d="M47.2,45.3h-4.6v19.5h4.6c6.5,0,8.2-2.5,8.2-9.4C55.4,48.3,54.5,45.3,47.2,45.3z"/>
		<path d="M69.6,0C31.2,0,0,31.2,0,69.6s31.2,69.6,69.6,69.6s69.6-31.2,69.6-69.6S108,0,69.6,0z M49.1,73.1h-6.5v29H30.7V36.9h19.2
			c11.7,0,16.7,6.8,16.7,18.5C66.6,68.2,59.7,73.1,49.1,73.1z M108.4,60.4H97v-5.6c0-5.5-0.1-9.9-6.1-9.9c-6.1,0-6.7,4.7-6.7,10.6
			v28.3c0,7.1,1.5,10.5,6.7,10.5c5.9,0,6.1-4.6,6.1-10.4V78h11.4v5.2c0,11.5-3.9,19.8-17.6,19.8c-14.3,0-18.6-9-18.6-21.8V58
			c0-13.4,4.3-21.8,18.6-21.8c13.4,0,17.6,7.4,17.6,18.8V60.4z"/>
	</g>
	<g>
		<path d="M158.2,36.9h8.9l11.5,52.9l11.6-52.9h8.9l1.2,65.3H193l-0.7-47.4l-11,47.4h-5.2l-11-47.4l-0.7,47.4H157L158.2,36.9z"/>
		<path d="M208.7,92c0-11.6,8.4-15,18.4-18.9v-3.3c0-5.6-0.6-8.4-4.7-8.4c-3.5,0-4.9,2.6-4.9,6.6v2.3l-8.5-0.3
			c0.2-10.3,4.5-15.1,14-15.1c9.2,0,12.7,5.2,12.7,14.7v21.3c0,4.4,0.4,8.2,0.8,11.2h-7.9c-0.3-1.7-0.9-4.7-1.1-6.8
			c-1.1,3.6-4.1,7.5-9.4,7.5C212.5,102.8,208.7,97.5,208.7,92z M227,91.5V78.3c-5.3,3.1-9.8,5.6-9.8,11c0,3.8,1.5,6,4.1,6
			C223.9,95.4,226.3,92.7,227,91.5z"/>
		<path d="M241.6,89.7l7.2-2.2c0.8,6,2.7,8.9,6.7,8.9c3.1,0,4.8-1.9,4.8-4.9c0-2.7-1.1-4.7-3.8-6.9l-8-6.8
			c-3.2-2.7-5.7-5.9-5.7-11.4c0-7.3,4.8-11.4,12-11.4c7.4,0,11.3,5.5,11.8,12.2l-5.8,2.2c-0.6-4.8-2-8.1-5.7-8.1
			c-2.8,0-4.6,2.2-4.6,4.8c0,1.6,0.6,3.1,2.3,4.7l8.2,7.6c3.3,3.1,6.6,6.6,6.6,12.6c0,8-5.2,11.9-12.9,11.9S242.3,97.6,241.6,89.7z"
			/>
		<path d="M276.4,91.7V61.3h-4.9v-5.7h4.9V41.9h8.6v13.6h7.5v5.7h-7.5v29.8c0,3.6,0.9,5.1,4.3,5.1c0.8,0,2.1-0.1,3.1-0.2v6.4
			c-2.2,0.3-3.8,0.5-6,0.5C279.2,102.8,276.4,98.4,276.4,91.7z"/>
		<path d="M298,84.2V73.5c0-12.3,3.1-18.6,13.8-18.6c11.7,0,13.2,7.6,13.2,20.3V79h-18.4v9.3c0,5.6,1.5,8.1,5.2,8.1
			c3.9,0,4.7-3,4.7-7.7v-2.8h8.4v1.8c0,9.3-3.6,15.1-13.1,15.1C300.8,102.8,298,96.3,298,84.2z M316.6,74.3v-4.2
			c0-5.7-0.6-8.9-4.8-8.9c-4.2,0-5.1,2.5-5.1,10.6v2.5H316.6z"/>
		<path d="M333.1,55.6h8.6v6.6c3.4-5.6,6.8-7.2,10.3-7.2c0.4,0,0.7,0,1.4,0.1v9.5c-1.3-0.5-3.1-1-4.8-1c-2.7,0-4.8,1-6.9,4.5v34
			h-8.6V55.6z"/>
		<path d="M375.9,83.9l8.1-2.2c0.5,7,2.3,14,9.3,14c4.7,0,7.2-2.7,7.2-7.7c0-5.9-3-8.9-7.1-12.6l-11-9.7c-4.4-3.8-6.3-7.9-6.3-14.4
			c0-9.6,5.9-15.1,15.3-15.1c10.4,0,15.4,5.4,16.4,16.8l-7.7,2.1c-0.5-6.4-1.9-11.9-8.7-11.9c-4.5,0-7.2,2.4-7.2,7.2
			c0,3.9,1.2,6.2,4.3,8.9l11,9.7c4.9,4.4,9.3,10.2,9.3,18.3c0,9.7-6.5,15.6-15.6,15.6C381.9,102.9,376.6,95.1,375.9,83.9z"/>
		<path d="M417.6,91.7V61.3h-4.9v-5.7h4.9V41.9h8.6v13.6h7.5v5.7h-7.5v29.8c0,3.6,0.9,5.1,4.3,5.1c0.8,0,2.1-0.1,3.1-0.2v6.4
			c-2.2,0.3-3.8,0.5-6,0.5C420.3,102.8,417.6,98.4,417.6,91.7z"/>
		<path d="M439.3,85.6V72.1c0-10.5,3.2-17.2,13.6-17.2c10.3,0,13.5,6.7,13.5,17.2v13.5c0,10.5-3.2,17.2-13.5,17.2
			C442.5,102.8,439.3,96.1,439.3,85.6z M457.8,86.2V71.6c0-5.2,0-10.3-4.9-10.3c-5,0-5,5.1-5,10.3v14.6c0,5.2,0,10.2,5,10.2
			C457.8,96.4,457.8,91.4,457.8,86.2z"/>
		<path d="M474.6,55.6h8.6v6.6c3.4-5.6,6.8-7.2,10.3-7.2c0.4,0,0.7,0,1.4,0.1v9.5c-1.3-0.5-3.1-1-4.8-1c-2.7,0-4.8,1-6.9,4.5v34
			h-8.6V55.6z"/>
		<path d="M499.3,84.2V73.5c0-12.3,3.1-18.6,13.8-18.6c11.7,0,13.2,7.6,13.2,20.3V79h-18.4v9.3c0,5.6,1.5,8.1,5.2,8.1
			c3.9,0,4.7-3,4.7-7.7v-2.8h8.4v1.8c0,9.3-3.6,15.1-13.1,15.1C502.1,102.8,499.3,96.3,499.3,84.2z M517.8,74.3v-4.2
			c0-5.7-0.6-8.9-4.8-8.9c-4.2,0-5.1,2.5-5.1,10.6v2.5H517.8z"/>
	</g>
</g>
</svg>
