<?xml version="1.0" encoding="utf-8"?>
<!-- Generator: Adobe Illustrator 23.0.1, SVG Export Plug-In . SVG Version: 6.00 Build 0)  -->
<svg version="1.1" id="Layer_1" xmlns="http://www.w3.org/2000/svg" xmlns:xlink="http://www.w3.org/1999/xlink" x="0px" y="0px"
	 width="526px" height="139.2px" viewBox="0 0 526 139.2" style="enable-background:new 0 0 526 139.2;" xml:space="preserve">
<style type="text/css">
	.st0{fill:#FFFFFF;}
</style>
<g>
	<g id="Layer_4_1_">
		<path class="st0" d="M47.7,45.3H43v20h4.7c6.7,0,8.4-2.6,8.4-9.6C56.1,48.3,55.2,45.3,47.7,45.3z"/>
		<path class="st0" d="M69.6,0C31.2,0,0,31.2,0,69.6s31.2,69.6,69.6,69.6s69.6-31.2,69.6-69.6S108,0,69.6,0z M49.3,73.3H43v29H31
			v-65l17.8,0c9.7,0,17.7,7.8,17.9,17.5C67,68.2,60.1,73.3,49.3,73.3z M108,60.3H97v-5.7c0-5.6-0.1-10.1-6.2-10.1
			c-6.2,0-6.8,4.8-6.8,10.8v28.9c0,7.3,1.5,10.7,6.8,10.7c6,0,6.2-4.7,6.2-10.6v-6h11v5.3c0,11.8-3.9,20.3-17.5,20.3
			c-14.2,0-18.5-9.2-18.5-22.3V57.8c0-13.7,4.3-22.3,18.5-22.3c13.3,0,17.5,7.6,17.5,19.2C108,54.7,108,60.3,108,60.3z M158.1,37.3
			h8.9l11.5,52.7l11.6-52.7h8.9l1.2,65H193l-0.7-47.2l-11,47.2H176l-11-47.2l-0.7,47.2h-7.4C156.9,102.3,158.1,37.3,158.1,37.3z
			 M207.8,92.2c0-11.6,8.8-15,19.2-18.9V70c0-5.6-0.6-8.4-4.9-8.4c-3.6,0-5.1,2.6-5.1,6.6v2.3l-8.9-0.3c0.2-10.3,4.7-15.1,14.6-15.1
			c9.6,0,13.3,5.2,13.3,14.7v21.3c0,4.4,0.4,8.2,0.8,11.2h-8.3c-0.3-1.7-0.9-4.7-1.1-6.8c-1.1,3.6-4.3,7.5-9.8,7.5
			C211.8,102.9,207.8,97.6,207.8,92.2L207.8,92.2z M227,91.5V78.3c-5.3,3.1-9.8,5.6-9.8,11c0,3.8,1.5,6,4.1,6
			C223.9,95.4,226.3,92.7,227,91.5z M241.6,89.7l7.2-2.2c0.8,6,2.7,8.9,6.7,8.9c3.1,0,4.8-1.9,4.8-4.9c0-2.7-1.1-4.7-3.8-6.9l-8-6.8
			c-3.2-2.7-5.7-5.9-5.7-11.4c0-7.3,4.8-11.4,12-11.4c7.4,0,11.3,5.5,11.8,12.2l-5.8,2.2c-0.6-4.8-2-8.1-5.7-8.1
			c-2.8,0-4.6,2.2-4.6,4.8c0,1.6,0.6,3.1,2.3,4.7l8.2,7.6c3.3,3.1,6.6,6.6,6.6,12.6c0,8-5.2,11.9-12.9,11.9S242.3,97.6,241.6,89.7
			L241.6,89.7z M276,91.7V61.3h-5v-6h5v-14h9v14h8v6h-8v29.8c0,3.6,0.9,5.1,4.1,5.1c0.8,0,2-0.1,2.9-0.2v6.4c-2.2,0.3-3.8,0.5-6,0.5
			C278.8,102.8,276,98.4,276,91.7z M298,84.5V73.8c0-12.3,3.1-18.6,13.8-18.6c11.7,0,13.2,7.6,13.2,20.3v3.8h-18v9.4
			c0,5.7,1.5,8.2,5.3,8.2c3.9,0,4.7-3,4.7-7.8v-2.8h8v1.8c0,9.3-3.6,15.1-13.1,15.1C300.8,103.2,298,96.7,298,84.5L298,84.5z
			 M317,74.3v-4.2c0-5.7-0.6-8.9-4.8-8.9s-5.2,2.5-5.2,10.6v2.5H317z M333,56.3h9v6.6c3.5-5.6,7-7.2,10.6-7.2c0.4,0,0.7,0,1.4,0.1
			v9.5c-1.3-0.5-3.2-1-4.9-1c-2.8,0-4.9,1-7.1,4.5v33.5h-9C333,102.3,333,56.3,333,56.3z M375.9,83.9l8.1-2.2c0.5,7,2.3,14,9.3,14
			c4.7,0,7.2-2.7,7.2-7.7c0-5.9-3-8.9-7.1-12.6l-11-9.7c-4.4-3.8-6.3-7.9-6.3-14.4c0-9.6,5.9-15.1,15.3-15.1
			c10.4,0,15.4,5.4,16.4,16.8l-7.7,2.1c-0.5-6.4-1.9-11.9-8.7-11.9c-4.5,0-7.2,2.4-7.2,7.2c0,3.9,1.2,6.2,4.3,8.9l11,9.7
			c4.9,4.4,9.3,10.2,9.3,18.3c0,9.7-6.5,15.6-15.6,15.6C381.9,102.9,376.6,95.1,375.9,83.9L375.9,83.9z M418,92V61.3h-5v-6h4v-14h9
			v14h8v6h-8v29.8c0,3.6,0.9,5.1,4.1,5.1c0.8,0,2-0.1,2.9-0.2v6c-2.1,0.3-3.6,0.5-5.6,0.5C420.5,102.5,418,98.3,418,92z M439,85.6
			V72.1c0-10.5,3.2-17.1,13.5-17.1c10.3,0,13.5,6.7,13.5,17.1v13.5c0,10.5-3.2,17.1-13.5,17.1C442.2,102.7,439,96,439,85.6z
			 M458,86.3V71.5c0-5.3,0-10.4-4.9-10.4c-5.1,0-5.1,5.2-5.1,10.4v14.7c0,5.3,0,10.3,5.1,10.3C458,96.6,458,91.5,458,86.3z
			 M474,56.3h9v6.6c3.5-5.6,7-7.2,10.6-7.2c0.4,0,0.7,0,1.4,0.1v9.5c-1.3-0.5-3.2-1-4.9-1c-2.8,0-4.9,1-7.1,4.5v33.5h-9V56.3z
			 M499,84.5V73.8c0-12.3,3.1-18.6,13.8-18.6c11.7,0,13.2,7.6,13.2,20.3v3.8h-18v9.4c0,5.7,1.5,8.2,5.3,8.2c3.9,0,4.7-3,4.7-7.8
			v-2.8h8v1.8c0,9.3-3.6,15.1-13.1,15.1C501.8,103.2,499,96.7,499,84.5L499,84.5z M518,74.3v-4.2c0-5.7-0.6-8.9-4.8-8.9
			c-4.2,0-5.2,2.5-5.2,10.6v2.5H518z"/>
	</g>
</g>
</svg>
