<?xml version="1.0" standalone="no"?>
<!DOCTYPE svg PUBLIC "-//W3C//DTD SVG 20010904//EN"
 "http://www.w3.org/TR/2001/REC-SVG-20010904/DTD/svg10.dtd">
<svg version="1.0" xmlns="http://www.w3.org/2000/svg"
 width="432.000000pt" height="432.000000pt" viewBox="0 0 432.000000 432.000000"
 preserveAspectRatio="xMidYMid meet">
<metadata>
Created by potrace 1.11, written by Peter Selinger 2001-2013
</metadata>
<g transform="translate(0.000000,432.000000) scale(0.100000,-0.100000)"
fill="#000000" stroke="none">
<path d="M1979 4315 c-2 -1 -31 -6 -64 -9 -210 -20 -465 -94 -680 -197 -215
-103 -397 -231 -575 -406 -189 -186 -314 -358 -431 -598 -105 -217 -182 -475
-206 -695 -15 -142 -9 -469 11 -575 2 -11 7 -40 11 -65 33 -213 142 -501 269
-715 175 -294 447 -570 736 -745 258 -156 575 -265 865 -297 81 -9 404 -10
486 -1 143 15 343 64 494 120 523 193 957 587 1197 1085 83 174 161 415 184
571 3 20 7 44 9 52 11 41 20 180 19 315 0 201 -11 302 -50 483 -153 693 -657
1279 -1325 1538 -154 60 -260 87 -499 129 -37 7 -446 16 -451 10z m976 -1110
c65 -11 140 -41 188 -73 139 -96 196 -249 200 -533 l2 -144 -170 -3 -170 -2
-1 142 c0 220 -17 283 -85 323 -53 31 -174 28 -223 -5 -44 -30 -72 -85 -84
-162 -5 -32 -8 -313 -7 -625 1 -559 2 -569 23 -624 22 -56 47 -86 91 -109 32
-16 150 -17 181 0 84 43 103 103 104 330 l2 165 164 3 c107 2 166 -1 170 -8
10 -16 3 -265 -9 -335 -19 -110 -22 -119 -61 -201 -82 -169 -225 -245 -465
-246 -220 -1 -375 72 -470 222 -25 40 -61 128 -71 172 -2 13 -10 48 -16 78
-13 64 -17 1034 -5 1140 30 249 132 401 317 471 29 11 77 22 108 25 31 4 58 8
60 9 6 5 186 -3 227 -10z m-1366 -49 c116 -12 226 -69 321 -165 116 -117 167
-261 157 -442 -16 -278 -129 -430 -363 -485 -45 -11 -119 -17 -211 -18 -78 0
-145 -4 -149 -8 -3 -4 -7 -206 -7 -448 0 -242 -3 -441 -6 -441 -3 -1 -86 -2
-184 -3 l-177 -1 -1 25 c0 26 0 1970 1 1982 0 4 12 8 28 10 42 5 537 0 591 -6z"/>
<path d="M1343 2907 c-5 -8 -8 -458 -4 -589 l1 -27 124 3 c196 5 239 35 272
191 7 31 6 211 -1 252 -10 56 -40 118 -67 135 -13 8 -39 20 -59 27 -46 15
-258 21 -266 8z"/>
</g>
</svg>
