<?xml version="1.0" encoding="utf-8"?>
<!-- Generator: Adobe Illustrator 23.0.1, SVG Export Plug-In . SVG Version: 6.00 Build 0)  -->
<svg version="1.1" id="Layer_1" xmlns="http://www.w3.org/2000/svg" xmlns:xlink="http://www.w3.org/1999/xlink" x="0px" y="0px"
	 width="21.6px" height="21.6px" viewBox="0 0 21.6 21.6" style="enable-background:new 0 0 21.6 21.6;" xml:space="preserve">
<style type="text/css">
	.st0{fill-rule:evenodd;clip-rule:evenodd;fill:#0090E3;}
</style>
<path id="check-circle_copy" class="st0" d="M21.6,10.8c0-1.9-0.5-3.8-1.5-5.4c-0.9-1.6-2.3-3-3.9-3.9c-3.3-1.9-7.4-1.9-10.8,0
	c-1.6,0.9-3,2.3-3.9,3.9c-1.9,3.3-1.9,7.5,0,10.8c0.9,1.6,2.3,3,3.9,3.9c3.3,1.9,7.4,1.9,10.8,0c1.6-0.9,3-2.3,3.9-3.9
	C21.1,14.5,21.6,12.7,21.6,10.8z M9.5,16.5c-0.2,0.3-0.6,0.3-0.9,0.1c0,0,0,0-0.1-0.1L4,11.9c-0.3-0.2-0.3-0.6-0.1-0.9
	C4,11,4,11,4,11L5,10c0.1-0.1,0.3-0.2,0.5-0.2C5.7,9.8,5.9,9.9,6,10L9,13l6.5-6.5c0.3-0.3,0.7-0.3,1,0c0,0,0,0,0,0l1,1
	c0.3,0.2,0.3,0.7,0,0.9c0,0,0,0,0,0L9.5,16.5z"/>
</svg>
