<svg
        xmlns="http://www.w3.org/2000/svg"
        xmlns:xlink="http://www.w3.org/1999/xlink"
        width="23px" height="17px">
    <path fill-rule="evenodd"  fill="rgb(255, 255, 255)"
          d="M8.212,16.664 C8.415,16.896 8.676,17.012 8.995,17.012 C9.313,17.012 9.574,16.896 9.777,16.664 L22.604,3.882 C22.807,3.679 22.908,3.418 22.908,3.099 C22.908,2.780 22.807,2.519 22.604,2.316 L20.995,0.751 C20.792,0.519 20.538,0.403 20.234,0.403 C19.930,0.403 19.662,0.519 19.430,0.751 L8.995,11.186 L4.125,6.316 C3.893,6.085 3.625,5.969 3.321,5.969 C3.016,5.969 2.763,6.085 2.560,6.316 L0.951,7.882 C0.748,8.085 0.647,8.345 0.647,8.664 C0.647,8.983 0.748,9.244 0.951,9.447 L8.212,16.664 Z"/>
</svg>