<svg xmlns="http://www.w3.org/2000/svg" width="21.56" height="21.562" viewBox="0 0 21.56 21.562">
  <defs>
    <style>
      .cls-1 {
        fill: #fff;
        fill-rule: evenodd;
      }
    </style>
  </defs>
  <path id="check-circle_copy" data-name="check-circle copy" class="cls-1" d="M1058.56,235.708a10.47,10.47,0,0,0-1.46-5.392,10.9,10.9,0,0,0-3.93-3.935,10.7,10.7,0,0,0-10.78,0,10.851,10.851,0,0,0-3.94,3.935,10.685,10.685,0,0,0,0,10.783,10.844,10.844,0,0,0,3.94,3.935,10.7,10.7,0,0,0,10.78,0,10.893,10.893,0,0,0,3.93-3.935A10.464,10.464,0,0,0,1058.56,235.708Zm-12.04,5.7a0.639,0.639,0,0,1-.96,0l-4.52-4.522a0.63,0.63,0,0,1,0-.957l0.95-1a0.709,0.709,0,0,1,.5-0.217,0.676,0.676,0,0,1,.5.217l3.05,3.044,6.52-6.522a0.682,0.682,0,0,1,1,0l0.96,1a0.649,0.649,0,0,1,0,.956Z" transform="translate(-1037 -224.938)"/>
</svg>
