<svg
        xmlns="http://www.w3.org/2000/svg"
        xmlns:xlink="http://www.w3.org/1999/xlink"
        width="14px" height="21px">
    <path fill-rule="evenodd"  fill="rgb(43, 42, 64)"
          d="M12.793,11.144 C13.039,10.930 13.161,10.669 13.161,10.363 C13.161,10.056 13.039,9.796 12.793,9.581 L3.875,0.663 C3.660,0.448 3.400,0.341 3.093,0.341 C2.787,0.341 2.526,0.448 2.312,0.663 L1.300,1.674 C1.086,1.889 0.971,2.149 0.956,2.456 C0.940,2.762 1.040,3.023 1.254,3.237 L8.380,10.363 L1.254,17.489 C1.040,17.703 0.940,17.964 0.956,18.270 C0.971,18.577 1.086,18.837 1.300,19.052 L2.312,20.063 C2.526,20.278 2.787,20.385 3.093,20.385 C3.400,20.385 3.660,20.278 3.875,20.063 L12.793,11.144 Z"/>
</svg>