<svg
        xmlns="http://www.w3.org/2000/svg"
        xmlns:xlink="http://www.w3.org/1999/xlink"
        width="12px" height="20px">
    <path fill-rule="evenodd"  fill="rgb(43, 42, 64)"
          d="M0.357,9.216 C0.116,9.430 -0.005,9.690 -0.005,9.996 C-0.005,10.302 0.116,10.563 0.357,10.777 L9.139,19.681 C9.350,19.896 9.606,20.003 9.908,20.003 C10.210,20.003 10.466,19.896 10.678,19.681 L11.673,18.672 C11.885,18.457 11.998,18.197 12.013,17.891 C12.028,17.585 11.930,17.325 11.719,17.111 L4.703,9.996 L11.719,2.882 C11.930,2.668 12.028,2.408 12.013,2.102 C11.998,1.796 11.885,1.535 11.673,1.321 L10.678,0.311 C10.466,0.097 10.210,-0.010 9.908,-0.010 C9.606,-0.010 9.350,0.097 9.139,0.311 L0.357,9.216 Z"/>
</svg>