<svg xmlns="http://www.w3.org/2000/svg" width="25.03" height="22.25" viewBox="0 0 25.03 22.25">
  <defs>
    <style>
      .cls-1 {
        fill: #ff943f;
        fill-rule: evenodd;
      }
    </style>
  </defs>
  <path id="exclamation-triangle_copy" data-name="exclamation-triangle copy" class="cls-1" d="M1378.43,457.708l-10.44-18.087a1.954,1.954,0,0,0-1.1-.935,2.22,2.22,0,0,0-1.44,0,1.942,1.942,0,0,0-1.11.935l-10.43,18.087a2.2,2.2,0,0,0-.22,1.413,2.09,2.09,0,0,0,.7,1.217,1.935,1.935,0,0,0,1.34.5h20.87a1.959,1.959,0,0,0,1.35-.5,2.09,2.09,0,0,0,.7-1.217A2.267,2.267,0,0,0,1378.43,457.708Zm-12.26-3.739a2,2,0,1,1-1.41,3.413,1.987,1.987,0,0,1,0-2.826A1.916,1.916,0,0,1,1366.17,453.969Zm-1.91-7.174a0.562,0.562,0,0,1,.15-0.413,0.493,0.493,0,0,1,.37-0.153h2.78a0.508,0.508,0,0,1,.37.153,0.562,0.562,0,0,1,.15.413l-0.35,5.913a0.461,0.461,0,0,1-.15.326,0.5,0.5,0,0,1-.37.152h-2.08a0.5,0.5,0,0,1-.37-0.152,0.437,0.437,0,0,1-.16-0.326Z" transform="translate(-1353.66 -438.594)"/>
</svg>