<?xml version="1.0" encoding="utf-8"?>
<!-- Generator: Adobe Illustrator 23.0.1, SVG Export Plug-In . SVG Version: 6.00 Build 0)  -->
<svg version="1.1" id="Layer_1" xmlns="http://www.w3.org/2000/svg" xmlns:xlink="http://www.w3.org/1999/xlink" x="0px" y="0px"
	 width="45px" height="40px" viewBox="0 0 45 40" style="enable-background:new 0 0 45 40;" xml:space="preserve">
<style type="text/css">
	.st0{fill-rule:evenodd;clip-rule:evenodd;fill:#FFFFFF;}
</style>
<path class="st0" d="M42.6,5.8c0.6,0,1,0.2,1.4,0.7s0.5,1,0.3,1.5L41,23.9c-0.1,0.4-0.3,0.8-0.6,1c-0.3,0.3-0.7,0.4-1.1,0.4H14
	l0.9,4.9h22.6c0.5,0,0.9,0.1,1.2,0.4c0.3,0.3,0.5,0.6,0.6,1c1,1,1.4,2.1,1.4,3.5c0,1.4-0.5,2.5-1.4,3.5c-0.9,0.9-2.1,1.4-3.5,1.4
	c-1.4,0-2.5-0.5-3.5-1.4c-0.9-0.9-1.4-2.1-1.4-3.5c0-0.9,0.2-1.7,0.7-2.4H20.5c0.5,0.8,0.7,1.6,0.7,2.4c0,1.4-0.5,2.5-1.4,3.5
	c-0.9,0.9-2.1,1.4-3.5,1.4c-1.4,0-2.5-0.5-3.5-1.4c-0.9-0.9-1.4-2.1-1.4-3.4c0-1.3,0.4-2.4,1.3-3.4L7.4,3.4h-6
	c-0.2,0-0.5-0.1-0.6-0.3C0.6,3,0.5,2.7,0.5,2.5V1.9c0-0.3,0.1-0.5,0.3-0.6C0.9,1.1,1.2,1,1.4,1h6.5c0.5,0,0.9,0.1,1.2,0.4
	C9.4,1.7,9.6,2,9.7,2.5l0.6,3.4H42.6z M18.8,35.1c0-0.7-0.2-1.2-0.7-1.7c-0.5-0.5-1.1-0.7-1.7-0.7c-0.7,0-1.2,0.2-1.7,0.7
	c-0.5,0.5-0.7,1.1-0.7,1.7c0,0.7,0.2,1.2,0.7,1.7c0.5,0.5,1.1,0.7,1.7,0.7c0.7,0,1.2-0.2,1.7-0.7C18.5,36.3,18.8,35.8,18.8,35.1z
	 M35.9,37.5c0.7,0,1.2-0.2,1.7-0.7c0.5-0.5,0.7-1.1,0.7-1.7c0-0.7-0.2-1.2-0.7-1.7c-0.5-0.5-1.1-0.7-1.7-0.7c-0.7,0-1.2,0.2-1.7,0.7
	c-0.5,0.5-0.7,1.1-0.7,1.7c0,0.7,0.2,1.2,0.7,1.7C34.6,37.3,35.2,37.5,35.9,37.5z M38.8,22.9l3-14.6h-31l2.7,14.6
	C13.5,22.9,38.8,22.9,38.8,22.9z"/>
</svg>
